# xmcd
#
# Track frame offsets:
#	150
#	29740
#	49236
#	80696
#	95592
#	123419
#	150191
#	177569
#	201963
#	223634
#
# Disc length: 3283 seconds
#
# Revision: 1
# Processed by: cddbd v1.5.2PL0 Copyright (c) Steve Scherf et al.
# Submitted via: EZCDAudioConverter 8.0.2.1
#
DISCID=8d0cd10a
DTITLE=Thanh Lam, Mỹ Linh, Hồng Nhung - Có Những Chiều Nghe Rất Lạ
DYEAR=1998
DGENRE=Contemporary Blues
TTITLE0=Thanh Lam - Có Những Chiều Nghe Rất Lạ
TTITLE1=Mỹ Linh - Cơi trầu
TTITLE2=Hồng Nhung - Dốc mơ
TTITLE3=Hồng Nhung - Mùa thu ru em
TTITLE4=Thanh Lam - Hơi thở mùa xuân
TTITLE5=Hồng Nhung - Mùa đông công viên
TTITLE6=Mỹ Linh - Sóng nucows Ngọc Tuyền
TTITLE7=Phương Thanh - Sài Gòn hai mùa
TTITLE8=Thanh Lam - Hoa sữa
TTITLE9=Hồng Nhung - Thu hát trên ngàn
EXTD=
EXTT0=
EXTT1=
EXTT2=
EXTT3=
EXTT4=
EXTT5=
EXTT6=
EXTT7=
EXTT8=
EXTT9=
PLAYORDER=
